<svg preserveAspectRatio="none" width="190" height="190" overflow="visible" style="display: block;" viewBox="0 0 190 190" fill="none" xmlns="http://www.w3.org/2000/svg">
<g id="Retire Ready: Start Today">
<g clip-path="url(#clip0_0_694)">
<rect width="190" height="190" rx="95" fill="white" fill-opacity="0.02"/>
<g id="Vector" opacity="0.1">
<path fill-rule="evenodd" clip-rule="evenodd" d="M-0.935186 125.559L-77.1875 120.39V144.14L-15.3212 139.945L-0.935186 125.559Z" fill="white"/>
<path fill-rule="evenodd" clip-rule="evenodd" d="M40.847 122.059L41.6816 118.944L35.6799 116.891L40.847 122.059ZM14.8541 109.77L-69.0614 81.0743L-75.2083 104.015L4.86755 119.756L14.8541 109.77Z" fill="white"/>
<path fill-rule="evenodd" clip-rule="evenodd" d="M-51.0408 45.2088L-62.9158 65.7769L18.7845 105.839L21.7062 102.918L30.2503 111.462L42.169 117.306L46.1273 110.45L-51.0408 45.2088Z" fill="white"/>
<path d="M-41.145 32.0229L-24.3512 15.2291L52.6203 103.396L47.0224 108.994L-41.145 32.0229Z" fill="white"/>
<path d="M-11.3647 5.0567L9.20336 -6.8183L60.7328 98.2665L53.8767 102.225L-11.3647 5.0567Z" fill="white"/>
<path d="M24.3685 -13.297L47.3092 -19.4439L69.8848 95.397L62.2379 97.446L24.3685 -13.297Z" fill="white"/>
<path d="M63.6271 -21.7703L87.3771 -21.7703L79.4605 95.0005H71.5438L63.6271 -21.7703Z" fill="white"/>
<path d="M103.752 -19.7911L126.692 -13.6442L88.823 97.0988L81.176 95.0498L103.752 -19.7911Z" fill="white"/>
<path d="M141.99 -7.49863L162.558 4.37636L97.3164 101.545L90.4604 97.5862L141.99 -7.49863Z" fill="white"/>
<path d="M175.759 14.2722L192.553 31.066L104.386 108.038L98.7878 102.44L175.759 14.2722Z" fill="white"/>
<path fill-rule="evenodd" clip-rule="evenodd" d="M214.6 64.6051L202.725 44.037L153.871 76.8392L165.643 88.6117L214.6 64.6051ZM107.276 112.256L119.851 99.6811L105.557 109.278L107.276 112.256Z" fill="white"/>
<path fill-rule="evenodd" clip-rule="evenodd" d="M187.544 110.512L227.226 102.711L221.079 79.7702L173.181 96.1493L187.544 110.512Z" fill="white"/>
<path fill-rule="evenodd" clip-rule="evenodd" d="M219.102 142.07L229.552 142.779V119.029L198.187 121.155L219.102 142.07Z" fill="white"/>
</g>
<path id="sun" fill-rule="evenodd" clip-rule="evenodd" d="M40.6754 121.886L69.1598 150.371L107.451 112.08C100.767 101.786 89.3278 95 76.3393 95C59.5678 95 45.3802 106.314 40.6754 121.886Z" fill="white" fill-opacity="0.6"/>
<path id="Union" d="M318.333 241.3L148.283 411.351L85.089 348.157L21.7065 411.54L-132.604 257.228L21.7065 102.917L69.1601 150.371L148.283 71.25L318.333 241.3Z" fill="white" fill-opacity="0.25"/>
</g>
</g>
<defs>
<clipPath id="clip0_0_694">
<rect width="190" height="190" rx="95" fill="white"/>
</clipPath>
</defs>
</svg>
